<svg width="64" height="64" viewBox="0 0 64 64" fill="none" xmlns="http://www.w3.org/2000/svg">
<path d="M21.333 13.3334C27.224 13.3334 31.9997 18.109 31.9997 24C26.1086 24 21.333 19.2244 21.333 13.3334Z" fill="#F5E2AF"/>
<path d="M42.667 13.3334C36.776 13.3334 32.0003 18.109 32.0003 24C37.8914 24 42.667 19.2244 42.667 13.3334Z" fill="#F5E2AF"/>
<path d="M21.333 24C27.224 24 31.9997 28.7756 31.9997 34.6667C26.1086 34.6667 21.333 29.891 21.333 24Z" fill="#F5E2AF"/>
<path d="M21.333 34.6666C27.224 34.6666 31.9997 39.4423 31.9997 45.3333C26.1086 45.3333 21.333 40.5577 21.333 34.6666Z" fill="#F5E2AF"/>
<path d="M42.667 24C36.776 24 32.0003 28.7756 32.0003 34.6667C37.8914 34.6667 42.667 29.891 42.667 24Z" fill="#F5E2AF"/>
<path d="M42.667 34.6666C36.776 34.6666 32.0003 39.4423 32.0003 45.3333C37.8914 45.3333 42.667 40.5577 42.667 34.6666Z" fill="#F5E2AF"/>
<path d="M37.333 2.66675L37.333 10.6667" stroke="#2F3E4F"/>
<path d="M32 2.66675L32 10.6667" stroke="#2F3E4F"/>
<path d="M26.666 2.66675L26.666 10.6667" stroke="#2F3E4F"/>
<path d="M42.6663 61.3334C42.6663 55.4424 37.8907 50.6667 31.9997 50.6667C26.1086 50.6667 21.333 55.4424 21.333 61.3334" stroke="#2F3E4F"/>
<path d="M32 45.3334L32 50.6667" stroke="#2F3E4F"/>
</svg>
