<svg width="120" height="120" viewBox="0 0 120 120" fill="none" xmlns="http://www.w3.org/2000/svg">
<path d="M67 13L67 23" stroke="#263C44"/>
<path d="M60.3333 13L60.3333 23" stroke="#263C44"/>
<path d="M60 66L60 80" stroke="#263C44"/>
<path d="M53.6667 13L53.6667 23" stroke="#263C44"/>
<path d="M47 26.3333C54.3638 26.3333 60.3333 32.3029 60.3333 39.6667C52.9695 39.6667 47 33.6971 47 26.3333Z" fill="#FBE4C9"/>
<path d="M73.6667 26.3333C66.3029 26.3333 60.3334 32.3029 60.3334 39.6667C67.6972 39.6667 73.6667 33.6971 73.6667 26.3333Z" fill="#FBE4C9"/>
<path d="M47 39.6667C54.3638 39.6667 60.3333 45.6362 60.3333 53C52.9695 53 47 47.0305 47 39.6667Z" fill="#FBE4C9"/>
<path d="M73.6667 39.6667C66.3029 39.6667 60.3334 45.6362 60.3334 53C67.6972 53 73.6667 47.0305 73.6667 39.6667Z" fill="#FBE4C9"/>
<path d="M47 53C54.3638 53 60.3333 58.9695 60.3333 66.3333C52.9695 66.3333 47 60.3638 47 53Z" fill="#FBE4C9"/>
<path d="M73.6667 53C66.3029 53 60.3334 58.9695 60.3334 66.3333C67.6972 66.3333 73.6667 60.3638 73.6667 53Z" fill="#FBE4C9"/>
<path d="M86.3333 106.667C86.3333 91.9391 74.3943 80 59.6667 80C44.9391 80 33 91.9391 33 106.667" stroke="#263C44"/>
<path d="M73.3333 106.667C73.3333 99.3029 67.3638 93.3333 60 93.3333C52.6362 93.3333 46.6667 99.3029 46.6667 106.667" stroke="#263C44"/>
</svg>
