<svg width="120" height="120" viewBox="0 0 120 120" fill="none" xmlns="http://www.w3.org/2000/svg">
<path d="M67 13L67 23" stroke="#2F3E4F"/>
<path d="M60.3335 13L60.3335 23" stroke="#2F3E4F"/>
<path d="M60 66L60 80" stroke="#2F3E4F"/>
<path d="M53.6665 13L53.6665 23" stroke="#2F3E4F"/>
<path d="M47 26.3335C54.3638 26.3335 60.3333 32.303 60.3333 39.6668C52.9695 39.6668 47 33.6973 47 26.3335Z" fill="#F5E2AF"/>
<path d="M73.6665 26.3335C66.3027 26.3335 60.3332 32.303 60.3332 39.6668C67.697 39.6668 73.6665 33.6973 73.6665 26.3335Z" fill="#F5E2AF"/>
<path d="M47 39.6665C54.3638 39.6665 60.3333 45.636 60.3333 52.9998C52.9695 52.9998 47 47.0303 47 39.6665Z" fill="#F5E2AF"/>
<path d="M73.6665 39.6665C66.3027 39.6665 60.3332 45.636 60.3332 52.9998C67.697 52.9998 73.6665 47.0303 73.6665 39.6665Z" fill="#F5E2AF"/>
<path d="M47 53C54.3638 53 60.3333 58.9695 60.3333 66.3333C52.9695 66.3333 47 60.3638 47 53Z" fill="#F5E2AF"/>
<path d="M73.6665 53C66.3027 53 60.3332 58.9695 60.3332 66.3333C67.697 66.3333 73.6665 60.3638 73.6665 53Z" fill="#F5E2AF"/>
<path d="M86.3333 106.667C86.3333 91.9391 74.3943 80 59.6667 80C44.9391 80 33 91.9391 33 106.667" stroke="#2F3E4F"/>
<path d="M73.3332 106.667C73.3332 99.303 67.3636 93.3335 59.9998 93.3335C52.636 93.3335 46.6665 99.303 46.6665 106.667" stroke="#2F3E4F"/>
</svg>
