<svg width="40" height="40" viewBox="0 0 40 40" fill="none" xmlns="http://www.w3.org/2000/svg">
<path d="M13.3333 8.33334C17.0152 8.33334 20 11.3181 20 15C16.3181 15 13.3333 12.0152 13.3333 8.33334Z" fill="#FBE4C9"/>
<path d="M26.6667 8.33334C22.9848 8.33334 20 11.3181 20 15C23.6819 15 26.6667 12.0152 26.6667 8.33334Z" fill="#FBE4C9"/>
<path d="M13.3333 15C17.0152 15 20 17.9848 20 21.6667C16.3181 21.6667 13.3333 18.6819 13.3333 15Z" fill="#FBE4C9"/>
<path d="M13.3333 21.6667C17.0152 21.6667 20 24.6514 20 28.3333C16.3181 28.3333 13.3333 25.3486 13.3333 21.6667Z" fill="#FBE4C9"/>
<path d="M26.6667 15C22.9848 15 20 17.9848 20 21.6667C23.6819 21.6667 26.6667 18.6819 26.6667 15Z" fill="#FBE4C9"/>
<path d="M26.6667 21.6667C22.9848 21.6667 20 24.6514 20 28.3333C23.6819 28.3333 26.6667 25.3486 26.6667 21.6667Z" fill="#FBE4C9"/>
<path d="M23.3333 1.66669L23.3333 6.66669" stroke="#263C44"/>
<path d="M20 1.66669L20 6.66669" stroke="#263C44"/>
<path d="M16.6667 1.66669L16.6667 6.66669" stroke="#263C44"/>
<path d="M26.6667 38.3334C26.6667 34.6515 23.6819 31.6667 20 31.6667C16.3181 31.6667 13.3333 34.6515 13.3333 38.3334" stroke="#263C44"/>
<path d="M20 28.3333L20 31.6666" stroke="#263C44"/>
</svg>
