<svg width="120" height="120" viewBox="0 0 120 120" fill="none" xmlns="http://www.w3.org/2000/svg">
<mask id="path-1-inside-1_635_2707" fill="white">
<path d="M13.3335 31.6668C13.3335 21.5416 21.5416 13.3335 31.6668 13.3335C41.7921 13.3335 50.0002 21.5416 50.0002 31.6668V58.3335C50.0002 68.4587 41.7921 76.6668 31.6668 76.6668C21.5416 76.6668 13.3335 68.4587 13.3335 58.3335V31.6668Z"/>
</mask>
<path d="M14.3335 31.6668C14.3335 22.0939 22.0939 14.3335 31.6668 14.3335V12.3335C20.9893 12.3335 12.3335 20.9893 12.3335 31.6668H14.3335ZM31.6668 14.3335C41.2398 14.3335 49.0002 22.0939 49.0002 31.6668H51.0002C51.0002 20.9893 42.3443 12.3335 31.6668 12.3335V14.3335ZM49.0002 31.6668V58.3335H51.0002V31.6668H49.0002ZM14.3335 58.3335V31.6668H12.3335V58.3335H14.3335ZM31.6668 75.6668C22.0939 75.6668 14.3335 67.9064 14.3335 58.3335H12.3335C12.3335 69.011 20.9893 77.6668 31.6668 77.6668V75.6668ZM49.0002 58.3335C49.0002 67.9064 41.2398 75.6668 31.6668 75.6668V77.6668C42.3443 77.6668 51.0002 69.011 51.0002 58.3335H49.0002Z" fill="#2F3E4F" mask="url(#path-1-inside-1_635_2707)"/>
<path d="M31.667 40V106.667" stroke="#2F3E4F"/>
<path d="M24.5122 45L31.5833 52.0711" stroke="#2F3E4F"/>
<path fill-rule="evenodd" clip-rule="evenodd" d="M59.9998 13.3335C52.636 13.3335 46.6665 19.303 46.6665 26.6668V37.5158C40.6216 41.7323 36.6665 48.7377 36.6665 56.6668C36.6665 69.5535 47.1132 80.0002 59.9998 80.0002C72.8865 80.0002 83.3332 69.5535 83.3332 56.6668C83.3332 48.7377 79.3781 41.7323 73.3332 37.5158V26.6668C73.3332 19.303 67.3636 13.3335 59.9998 13.3335Z" fill="#BAE870"/>
<path d="M60 40V106.667" stroke="#2F3E4F"/>
<path d="M69.4282 50L60.0001 59.4281" stroke="#2F3E4F"/>
<path d="M52.8452 45L59.9163 52.0711" stroke="#2F3E4F"/>
<path d="M89.6943 69.6323L89.9999 106.667" stroke="#2F3E4F"/>
<path d="M97.0713 70L90.0002 77.0711" stroke="#2F3E4F"/>
<rect x="73.8335" y="50.5" width="32.3333" height="32.3333" rx="16.1667" stroke="#2F3E4F"/>
</svg>
