<svg width="120" height="120" viewBox="0 0 120 120" fill="none" xmlns="http://www.w3.org/2000/svg">
<mask id="path-1-inside-1_752_2242" fill="white">
<path d="M13.3335 31.6667C13.3335 21.5415 21.5416 13.3334 31.6668 13.3334C41.7921 13.3334 50.0002 21.5415 50.0002 31.6667V58.3334C50.0002 68.4586 41.7921 76.6667 31.6668 76.6667C21.5416 76.6667 13.3335 68.4586 13.3335 58.3334V31.6667Z"/>
</mask>
<path d="M14.3335 31.6667C14.3335 22.0938 22.0939 14.3334 31.6668 14.3334V12.3334C20.9893 12.3334 12.3335 20.9892 12.3335 31.6667H14.3335ZM31.6668 14.3334C41.2398 14.3334 49.0002 22.0938 49.0002 31.6667H51.0002C51.0002 20.9892 42.3443 12.3334 31.6668 12.3334V14.3334ZM49.0002 31.6667V58.3334H51.0002V31.6667H49.0002ZM14.3335 58.3334V31.6667H12.3335V58.3334H14.3335ZM31.6668 75.6667C22.0939 75.6667 14.3335 67.9063 14.3335 58.3334H12.3335C12.3335 69.0109 20.9893 77.6667 31.6668 77.6667V75.6667ZM49.0002 58.3334C49.0002 67.9063 41.2398 75.6667 31.6668 75.6667V77.6667C42.3443 77.6667 51.0002 69.0109 51.0002 58.3334H49.0002Z" fill="#263C44" mask="url(#path-1-inside-1_752_2242)"/>
<path d="M31.667 40V106.667" stroke="#263C44"/>
<path d="M24.5122 45L31.5833 52.0711" stroke="#263C44"/>
<path fill-rule="evenodd" clip-rule="evenodd" d="M59.9998 13.3334C52.636 13.3334 46.6665 19.3029 46.6665 26.6667V37.5157C40.6216 41.7322 36.6665 48.7376 36.6665 56.6667C36.6665 69.5534 47.1132 80 59.9998 80C72.8865 80 83.3332 69.5534 83.3332 56.6667C83.3332 48.7376 79.3781 41.7322 73.3332 37.5157V26.6667C73.3332 19.3029 67.3636 13.3334 59.9998 13.3334Z" fill="#C1ECD2"/>
<path d="M60 40V106.667" stroke="#263C44"/>
<path d="M69.4282 50L60.0001 59.4281" stroke="#263C44"/>
<path d="M52.8452 45L59.9163 52.0711" stroke="#263C44"/>
<path d="M89.6943 69.6322L89.9999 106.667" stroke="#263C44"/>
<path d="M97.0713 70L90.0002 77.0711" stroke="#263C44"/>
<rect x="73.8335" y="50.5" width="32.3333" height="32.3333" rx="16.1667" stroke="#263C44"/>
</svg>
