<svg width="120" height="120" viewBox="0 0 120 120" fill="none" xmlns="http://www.w3.org/2000/svg">
<path d="M36.6667 36.6667C36.6667 31.1438 41.1438 26.6667 46.6667 26.6667H96.6667C102.19 26.6667 106.667 31.1438 106.667 36.6667C106.667 42.1895 102.189 46.6667 96.6667 46.6667H46.6667C41.1438 46.6667 36.6667 42.1895 36.6667 36.6667Z" fill="#F1FABE"/>
<path d="M23.3333 63.3333C23.3333 57.8105 27.8105 53.3333 33.3333 53.3333H40C45.5229 53.3333 50 57.8105 50 63.3333C50 68.8562 45.5229 73.3333 40 73.3333H33.3333C27.8105 73.3333 23.3333 68.8562 23.3333 63.3333Z" fill="#F1FABE"/>
<path d="M60 40L60 106.667" stroke="#263C44"/>
<path d="M36.6667 66.6667V68C36.6667 74.6274 42.0392 80 48.6667 80H60" stroke="#263C44"/>
<path d="M86.6667 40V48C86.6667 54.6274 81.2941 60 74.6667 60H60" stroke="#263C44"/>
<path d="M26.6667 106.667L26.6667 100" stroke="#263C44"/>
<path d="M86.6667 106.667L86.6667 100" stroke="#263C44"/>
<path d="M40 106.667L40 100" stroke="#263C44"/>
<path d="M100 106.667L100 100" stroke="#263C44"/>
<path d="M13.3333 106.667L13.3333 100" stroke="#263C44"/>
<path d="M73.3333 106.667L73.3333 100" stroke="#263C44"/>
<path d="M66.6667 106.667L66.6667 100" stroke="#263C44"/>
<path d="M46.6667 106.667L46.6667 100" stroke="#263C44"/>
<path d="M53.3333 106.667L53.3333 100" stroke="#263C44"/>
<path d="M106.667 106.667L106.667 100" stroke="#263C44"/>
<path d="M20 106.667L20 100" stroke="#263C44"/>
<path d="M80 106.667L80 100" stroke="#263C44"/>
<path d="M33.3333 106.667L33.3333 100" stroke="#263C44"/>
<path d="M93.3333 106.667L93.3333 100" stroke="#263C44"/>
</svg>
