<svg width="40" height="40" viewBox="0 0 40 40" fill="none" xmlns="http://www.w3.org/2000/svg">
<path d="M8.33334 6.66666C8.33334 3.90523 10.5719 1.66666 13.3333 1.66666H26.6667C29.4281 1.66666 31.6667 3.90523 31.6667 6.66666C31.6667 9.42808 29.4281 11.6667 26.6667 11.6667H13.3333C10.5719 11.6667 8.33334 9.42808 8.33334 6.66666Z" fill="#F1FABE"/>
<path d="M26.6667 38.3333L26.6667 35" stroke="#263C44"/>
<path d="M23.3333 38.3333L23.3333 35" stroke="#263C44"/>
<path d="M13.3333 38.3333L13.3333 35" stroke="#263C44"/>
<path d="M16.6667 38.3333L16.6667 35" stroke="#263C44"/>
<path d="M20 8.33331V38.3333" stroke="#263C44"/>
<path d="M13.3333 8.33331V8.33331C13.3333 12.0152 16.3181 15 20 15V15" stroke="#263C44"/>
<path d="M26.6667 8.33331V15C26.6667 18.6819 23.6819 21.6666 20 21.6666V21.6666" stroke="#263C44"/>
</svg>
