<svg width="120" height="120" viewBox="0 0 120 120" fill="none" xmlns="http://www.w3.org/2000/svg">
<path d="M36.6665 36.6665C36.6665 31.1437 41.1437 26.6665 46.6665 26.6665H96.6665C102.189 26.6665 106.667 31.1437 106.667 36.6665C106.667 42.1894 102.189 46.6665 96.6665 46.6665H46.6665C41.1437 46.6665 36.6665 42.1894 36.6665 36.6665Z" fill="#FFDB80"/>
<path d="M23.3335 63.3335C23.3335 57.8106 27.8106 53.3335 33.3335 53.3335H40.0002C45.523 53.3335 50.0002 57.8106 50.0002 63.3335C50.0002 68.8563 45.523 73.3335 40.0002 73.3335H33.3335C27.8106 73.3335 23.3335 68.8563 23.3335 63.3335Z" fill="#FFDB80"/>
<path d="M60 40L60 106.667" stroke="#2F3E4F"/>
<path d="M36.6667 66.6665V67.9998C36.6667 74.6273 42.0392 79.9998 48.6667 79.9998H60" stroke="#2F3E4F"/>
<path d="M86.6667 40V48C86.6667 54.6274 81.2941 60 74.6667 60H60" stroke="#2F3E4F"/>
<path d="M26.6665 106.667L26.6665 100" stroke="#2F3E4F"/>
<path d="M86.6665 106.667L86.6665 100" stroke="#2F3E4F"/>
<path d="M40 106.667L40 100" stroke="#2F3E4F"/>
<path d="M100 106.667L100 100" stroke="#2F3E4F"/>
<path d="M13.3335 106.667L13.3335 100" stroke="#2F3E4F"/>
<path d="M73.3335 106.667L73.3335 100" stroke="#2F3E4F"/>
<path d="M66.6665 106.667L66.6665 100" stroke="#2F3E4F"/>
<path d="M46.6665 106.667L46.6665 100" stroke="#2F3E4F"/>
<path d="M53.3335 106.667L53.3335 100" stroke="#2F3E4F"/>
<path d="M106.667 106.667L106.667 100" stroke="#2F3E4F"/>
<path d="M20 106.667L20 100" stroke="#2F3E4F"/>
<path d="M80 106.667L80 100" stroke="#2F3E4F"/>
<path d="M33.3335 106.667L33.3335 100" stroke="#2F3E4F"/>
<path d="M93.3335 106.667L93.3335 100" stroke="#2F3E4F"/>
</svg>
