<svg width="64" height="64" viewBox="0 0 64 64" fill="none" xmlns="http://www.w3.org/2000/svg">
<path d="M13.3335 10.6666C13.3335 6.24835 16.9152 2.66663 21.3335 2.66663H42.6668C47.0851 2.66663 50.6668 6.24835 50.6668 10.6666C50.6668 15.0849 47.0851 18.6666 42.6668 18.6666H21.3335C16.9152 18.6666 13.3335 15.0849 13.3335 10.6666Z" fill="#FFDB80"/>
<path d="M42.667 61.3333L42.667 56" stroke="#2F3E4F"/>
<path d="M37.3335 61.3333L37.3335 56" stroke="#2F3E4F"/>
<path d="M21.3335 61.3333L21.3335 56" stroke="#2F3E4F"/>
<path d="M26.667 61.3333L26.667 56" stroke="#2F3E4F"/>
<path d="M32 13.3333V61.3333" stroke="#2F3E4F"/>
<path d="M21.3333 13.3333V13.3333C21.3333 19.2243 26.109 23.9999 32 23.9999V23.9999" stroke="#2F3E4F"/>
<path d="M42.6667 13.3333V23.9999C42.6667 29.891 37.891 34.6666 32 34.6666V34.6666" stroke="#2F3E4F"/>
</svg>
