<svg width="64" height="64" viewBox="0 0 64 64" fill="none" xmlns="http://www.w3.org/2000/svg">
<path d="M26.667 10.6667C26.667 7.72119 29.0548 5.33337 32.0003 5.33337C34.9458 5.33337 37.3337 7.72119 37.3337 10.6667V24C37.3337 26.9456 34.9458 29.3334 32.0003 29.3334V29.3334C29.0548 29.3334 26.667 26.9456 26.667 24V10.6667Z" fill="#CCECFA"/>
<path d="M32 28V50.6667" stroke="#2F3E4F"/>
<path d="M32 50.6667C32 50.6667 32 34.6667 41.3333 30.6667" stroke="#2F3E4F"/>
<path d="M32 50.6667C32 50.6667 32 34.6667 22.6667 30.6667" stroke="#2F3E4F"/>
<path d="M32 2.66675L32 6.66675" stroke="#2F3E4F"/>
<path d="M26.6667 56C26.6667 58.9455 24.2789 61.3333 21.3333 61.3333C18.3878 61.3333 16 58.9455 16 56" stroke="#2F3E4F"/>
<path d="M37.3337 56C37.3337 58.9455 34.9458 61.3333 32.0003 61.3333C29.0548 61.3333 26.667 58.9455 26.667 56" stroke="#2F3E4F"/>
<path d="M48.0006 56C48.0006 58.9455 45.6128 61.3333 42.6673 61.3333C39.7218 61.3333 37.334 58.9455 37.334 56" stroke="#2F3E4F"/>
</svg>
