<svg width="120" height="120" viewBox="0 0 120 120" fill="none" xmlns="http://www.w3.org/2000/svg">
<path d="M13 100.5C18.18 100.5 18.18 104.5 23.37 104.5C28.56 104.5 28.55 100.5 33.74 100.5C38.93 100.5 38.92 104.5 44.11 104.5C49.3 104.5 49.28 100.5 54.47 100.5C59.66 100.5 59.65 104.5 64.84 104.5C70.03 104.5 70.02 100.5 75.21 100.5C80.4 100.5 80.39 104.5 85.58 104.5C90.77 104.5 90.77 100.5 95.96 100.5C101.15 100.5 101.15 104.5 106.34 104.5" stroke="black" stroke-miterlimit="10"/>
<path d="M13 84.5C18.18 84.5 18.18 88.5 23.37 88.5C28.56 88.5 28.55 84.5 33.74 84.5C38.93 84.5 38.92 88.5 44.11 88.5C49.3 88.5 49.28 84.5 54.47 84.5C59.66 84.5 59.65 88.5 64.84 88.5C70.03 88.5 70.02 84.5 75.21 84.5C80.4 84.5 80.39 88.5 85.58 88.5C90.77 88.5 90.77 84.5 95.96 84.5C101.15 84.5 101.15 88.5 106.34 88.5" stroke="black" stroke-miterlimit="10"/>
<path d="M93.3333 45V73.3333" stroke="#263C44"/>
<path d="M93.3333 73.3333C93.3333 73.3333 93.3333 53.3333 105 48.3333" stroke="#263C44"/>
<path d="M93.3333 73.3333C93.3333 73.3333 93.3333 53.3333 81.6667 48.3333" stroke="#263C44"/>
<path d="M93.3333 13.3333L93.3333 18.3333" stroke="#263C44"/>
<path d="M86.6667 23.3333C86.6667 19.6514 89.6514 16.6667 93.3333 16.6667C97.0152 16.6667 100 19.6514 100 23.3333V40C100 43.6819 97.0152 46.6667 93.3333 46.6667C89.6514 46.6667 86.6667 43.6819 86.6667 40V23.3333Z" fill="#D6F1F3"/>
<path d="M60 45V73.3333" stroke="#263C44"/>
<path d="M60 73.3333C60 73.3333 60 53.3333 71.6667 48.3333" stroke="#263C44"/>
<path d="M60 73.3333C60 73.3333 60 53.3333 48.3333 48.3333" stroke="#263C44"/>
<path d="M60 13.3333L60 18.3333" stroke="#263C44"/>
<path d="M53.3333 23.3333C53.3333 19.6514 56.3181 16.6667 60 16.6667C63.6819 16.6667 66.6667 19.6514 66.6667 23.3333V40C66.6667 43.6819 63.6819 46.6667 60 46.6667C56.3181 46.6667 53.3333 43.6819 53.3333 40V23.3333Z" fill="#D6F1F3"/>
<path d="M26.6667 45V73.3333" stroke="#263C44"/>
<path d="M26.6667 73.3333C26.6667 73.3333 26.6667 53.3333 38.3333 48.3333" stroke="#263C44"/>
<path d="M26.6667 73.3333C26.6667 73.3333 26.6667 53.3333 15 48.3333" stroke="#263C44"/>
<path d="M26.6667 13.3333L26.6667 18.3333" stroke="#263C44"/>
<path d="M20 23.3333C20 19.6514 22.9848 16.6667 26.6667 16.6667C30.3486 16.6667 33.3333 19.6514 33.3333 23.3333V40C33.3333 43.6819 30.3486 46.6667 26.6667 46.6667C22.9848 46.6667 20 43.6819 20 40V23.3333Z" fill="#D6F1F3"/>
</svg>
