<svg width="120" height="120" viewBox="0 0 120 120" fill="none" xmlns="http://www.w3.org/2000/svg">
<path d="M26.6668 100C26.6668 103.682 23.6821 106.667 20.0002 106.667C16.3183 106.667 13.3335 103.682 13.3335 100" stroke="#2F3E4F"/>
<path d="M40.0003 100C40.0003 103.682 37.0156 106.667 33.3337 106.667C29.6518 106.667 26.667 103.682 26.667 100" stroke="#2F3E4F"/>
<path d="M53.3338 100C53.3338 103.682 50.3491 106.667 46.6672 106.667C42.9853 106.667 40.0005 103.682 40.0005 100" stroke="#2F3E4F"/>
<path d="M66.6673 100C66.6673 103.682 63.6825 106.667 60.0007 106.667C56.3188 106.667 53.334 103.682 53.334 100" stroke="#2F3E4F"/>
<path d="M93.3333 100C93.3333 103.682 90.3486 106.667 86.6667 106.667C82.9848 106.667 80 103.682 80 100" stroke="#2F3E4F"/>
<path d="M80.0003 100C80.0003 103.682 77.0156 106.667 73.3337 106.667C69.6518 106.667 66.667 103.682 66.667 100" stroke="#2F3E4F"/>
<path d="M106.667 100C106.667 103.682 103.683 106.667 100.001 106.667C96.3188 106.667 93.334 103.682 93.334 100" stroke="#2F3E4F"/>
<path d="M26.6668 83.3334C26.6668 87.0153 23.6821 90 20.0002 90C16.3183 90 13.3335 87.0153 13.3335 83.3334" stroke="#2F3E4F"/>
<path d="M40.0003 83.3334C40.0003 87.0153 37.0156 90 33.3337 90C29.6518 90 26.667 87.0153 26.667 83.3334" stroke="#2F3E4F"/>
<path d="M53.3338 83.3334C53.3338 87.0153 50.3491 90 46.6672 90C42.9853 90 40.0005 87.0153 40.0005 83.3334" stroke="#2F3E4F"/>
<path d="M66.6673 83.3334C66.6673 87.0153 63.6825 90 60.0007 90C56.3188 90 53.334 87.0153 53.334 83.3334" stroke="#2F3E4F"/>
<path d="M93.3333 83.3334C93.3333 87.0153 90.3486 90 86.6667 90C82.9848 90 80 87.0153 80 83.3334" stroke="#2F3E4F"/>
<path d="M80.0003 83.3334C80.0003 87.0153 77.0156 90 73.3337 90C69.6518 90 66.667 87.0153 66.667 83.3334" stroke="#2F3E4F"/>
<path d="M106.667 83.3334C106.667 87.0153 103.683 90 100.001 90C96.3188 90 93.334 87.0153 93.334 83.3334" stroke="#2F3E4F"/>
<path d="M93.334 45V73.3333" stroke="#2F3E4F"/>
<path d="M93.334 73.3334C93.334 73.3334 93.334 53.3334 105.001 48.3334" stroke="#2F3E4F"/>
<path d="M93.334 73.3334C93.334 73.3334 93.334 53.3334 81.6673 48.3334" stroke="#2F3E4F"/>
<path d="M93.334 13.3334L93.334 18.3334" stroke="#2F3E4F"/>
<path d="M86.667 23.3334C86.667 19.6515 89.6518 16.6667 93.3337 16.6667C97.0156 16.6667 100 19.6515 100 23.3334V40.0001C100 43.682 97.0156 46.6667 93.3337 46.6667V46.6667C89.6518 46.6667 86.667 43.682 86.667 40.0001V23.3334Z" fill="#CCECFA"/>
<path d="M60 45V73.3333" stroke="#2F3E4F"/>
<path d="M60 73.3334C60 73.3334 60 53.3334 71.6667 48.3334" stroke="#2F3E4F"/>
<path d="M60 73.3334C60 73.3334 60 53.3334 48.3333 48.3334" stroke="#2F3E4F"/>
<path d="M60 13.3334L60 18.3334" stroke="#2F3E4F"/>
<path d="M53.333 23.3334C53.333 19.6515 56.3178 16.6667 59.9997 16.6667C63.6816 16.6667 66.6663 19.6515 66.6663 23.3334V40.0001C66.6663 43.682 63.6816 46.6667 59.9997 46.6667V46.6667C56.3178 46.6667 53.333 43.682 53.333 40.0001V23.3334Z" fill="#CCECFA"/>
<path d="M26.6665 45V73.3333" stroke="#2F3E4F"/>
<path d="M26.6665 73.3334C26.6665 73.3334 26.6665 53.3334 38.3332 48.3334" stroke="#2F3E4F"/>
<path d="M26.6665 73.3334C26.6665 73.3334 26.6665 53.3334 14.9998 48.3334" stroke="#2F3E4F"/>
<path d="M26.6665 13.3334L26.6665 18.3334" stroke="#2F3E4F"/>
<path d="M20 23.3334C20 19.6515 22.9848 16.6667 26.6667 16.6667C30.3486 16.6667 33.3333 19.6515 33.3333 23.3334V40.0001C33.3333 43.682 30.3486 46.6667 26.6667 46.6667V46.6667C22.9848 46.6667 20 43.682 20 40.0001V23.3334Z" fill="#CCECFA"/>
</svg>
