<svg width="120" height="120" viewBox="0 0 120 120" fill="none" xmlns="http://www.w3.org/2000/svg">
<path d="M26.6668 100C26.6668 103.682 23.6821 106.667 20.0002 106.667C16.3183 106.667 13.3335 103.682 13.3335 100" stroke="#2F3E4F"/>
<path d="M40.0003 100C40.0003 103.682 37.0156 106.667 33.3337 106.667C29.6518 106.667 26.667 103.682 26.667 100" stroke="#2F3E4F"/>
<path d="M53.3338 100C53.3338 103.682 50.3491 106.667 46.6672 106.667C42.9853 106.667 40.0005 103.682 40.0005 100" stroke="#2F3E4F"/>
<path d="M66.6668 100C66.6668 103.682 63.6821 106.667 60.0002 106.667C56.3183 106.667 53.3335 103.682 53.3335 100" stroke="#2F3E4F"/>
<path d="M93.3333 100C93.3333 103.682 90.3486 106.667 86.6667 106.667C82.9848 106.667 80 103.682 80 100" stroke="#2F3E4F"/>
<path d="M80.0003 100C80.0003 103.682 77.0156 106.667 73.3337 106.667C69.6518 106.667 66.667 103.682 66.667 100" stroke="#2F3E4F"/>
<path d="M106.667 100C106.667 103.682 103.682 106.667 100 106.667C96.3183 106.667 93.3335 103.682 93.3335 100" stroke="#2F3E4F"/>
<path d="M26.6668 83.3335C26.6668 87.0154 23.6821 90.0002 20.0002 90.0002C16.3183 90.0002 13.3335 87.0154 13.3335 83.3335" stroke="#2F3E4F"/>
<path d="M40.0003 83.3335C40.0003 87.0154 37.0156 90.0002 33.3337 90.0002C29.6518 90.0002 26.667 87.0154 26.667 83.3335" stroke="#2F3E4F"/>
<path d="M53.3338 83.3335C53.3338 87.0154 50.3491 90.0002 46.6672 90.0002C42.9853 90.0002 40.0005 87.0154 40.0005 83.3335" stroke="#2F3E4F"/>
<path d="M66.6668 83.3335C66.6668 87.0154 63.6821 90.0002 60.0002 90.0002C56.3183 90.0002 53.3335 87.0154 53.3335 83.3335" stroke="#2F3E4F"/>
<path d="M93.3333 83.3335C93.3333 87.0154 90.3486 90.0002 86.6667 90.0002C82.9848 90.0002 80 87.0154 80 83.3335" stroke="#2F3E4F"/>
<path d="M80.0003 83.3335C80.0003 87.0154 77.0156 90.0002 73.3337 90.0002C69.6518 90.0002 66.667 87.0154 66.667 83.3335" stroke="#2F3E4F"/>
<path d="M106.667 83.3335C106.667 87.0154 103.682 90.0002 100 90.0002C96.3183 90.0002 93.3335 87.0154 93.3335 83.3335" stroke="#2F3E4F"/>
<path d="M93.333 45V73.3333" stroke="#2F3E4F"/>
<path d="M93.333 73.3335C93.333 73.3335 93.333 53.3335 105 48.3335" stroke="#2F3E4F"/>
<path d="M93.333 73.3335C93.333 73.3335 93.333 53.3335 81.6663 48.3335" stroke="#2F3E4F"/>
<path d="M93.333 13.3335L93.333 18.3335" stroke="#2F3E4F"/>
<path d="M86.6665 23.3337C86.6665 19.6518 89.6513 16.667 93.3332 16.667L-nan -nanL93.3332 16.667C97.0151 16.667 99.9998 19.6518 99.9998 23.3337V40.0003C99.9998 43.6822 97.0151 46.667 93.3332 46.667C89.6513 46.667 86.6665 43.6822 86.6665 40.0003V23.3337Z" fill="#CCECFA"/>
<path d="M60 45V73.3333" stroke="#2F3E4F"/>
<path d="M60 73.3335C60 73.3335 60 53.3335 71.6667 48.3335" stroke="#2F3E4F"/>
<path d="M60 73.3335C60 73.3335 60 53.3335 48.3333 48.3335" stroke="#2F3E4F"/>
<path d="M60 13.3335L60 18.3335" stroke="#2F3E4F"/>
<path d="M53.3335 23.3337C53.3335 19.6518 56.3183 16.667 60.0002 16.667L-nan -nanL60.0002 16.667C63.6821 16.667 66.6668 19.6518 66.6668 23.3337V40.0003C66.6668 43.6822 63.6821 46.667 60.0002 46.667C56.3183 46.667 53.3335 43.6822 53.3335 40.0003V23.3337Z" fill="#CCECFA"/>
<path d="M26.6665 45V73.3333" stroke="#2F3E4F"/>
<path d="M26.6665 73.3335C26.6665 73.3335 26.6665 53.3335 38.3332 48.3335" stroke="#2F3E4F"/>
<path d="M26.6665 73.3335C26.6665 73.3335 26.6665 53.3335 14.9998 48.3335" stroke="#2F3E4F"/>
<path d="M26.6665 13.3335L26.6665 18.3335" stroke="#2F3E4F"/>
<path d="M20 23.3337C20 19.6518 22.9848 16.667 26.6667 16.667L-nan -nanL26.6667 16.667C30.3486 16.667 33.3333 19.6518 33.3333 23.3337V40.0003C33.3333 43.6822 30.3486 46.667 26.6667 46.667C22.9848 46.667 20 43.6822 20 40.0003V23.3337Z" fill="#CCECFA"/>
</svg>
