<svg width="64" height="64" viewBox="0 0 64 64" fill="none" xmlns="http://www.w3.org/2000/svg">
<g id="Frame">
<path id="Vector" d="M26.6666 26.6665V27.1998C28.4155 27.8724 29.8728 29.1375 30.7844 30.7744C31.696 32.4114 32.0042 34.3165 31.655 36.1574C31.3059 37.9983 30.3216 39.6583 28.8739 40.8478C27.4262 42.0373 25.6069 42.681 23.7333 42.6665H13.3333C11.482 42.6204 9.70401 41.9335 8.30261 40.723C6.90122 39.5124 5.9632 37.8532 5.64856 36.0282C5.33392 34.2033 5.66213 32.3257 6.57723 30.7158C7.49233 29.1058 8.93762 27.8632 10.6666 27.1998V26.6665C10.6666 24.5448 11.5095 22.5099 13.0097 21.0096C14.51 19.5094 16.5449 18.6665 18.6666 18.6665C20.7883 18.6665 22.8232 19.5094 24.3235 21.0096C25.8237 22.5099 26.6666 24.5448 26.6666 26.6665Z" fill="#00CC99"/>
<path id="Vector_2" d="M18.6665 42.6665V58.6665" stroke="#263C44" stroke-linecap="round" stroke-linejoin="round"/>
<path id="Vector_3" d="M34.6665 50.6665V58.6665" stroke="#263C44" stroke-linecap="round" stroke-linejoin="round"/>
<path id="Vector_4" d="M31.9998 50.6667H54.1331C54.655 50.6593 55.1633 50.499 55.595 50.2055C56.0267 49.912 56.3627 49.4983 56.5615 49.0156C56.7602 48.5329 56.8129 48.0025 56.7131 47.4902C56.6132 46.9778 56.3652 46.5061 55.9998 46.1333L47.9998 37.3333H48.7998C49.3217 37.326 49.83 37.1656 50.2617 36.8722C50.6933 36.5787 51.0294 36.1649 51.2281 35.6823C51.4269 35.1996 51.4796 34.6692 51.3797 34.1569C51.2799 33.6445 51.0319 33.1727 50.6664 32.8L42.6664 24H43.1998C43.7444 24.0491 44.2911 23.9296 44.7655 23.6576C45.24 23.3857 45.6193 22.9744 45.8522 22.4796C46.0851 21.9847 46.1602 21.4303 46.0673 20.8913C45.9744 20.3524 45.7181 19.855 45.3331 19.4667L34.6664 8L30.9331 12" stroke="#263C44" stroke-linecap="round" stroke-linejoin="round"/>
</g>
</svg>
