<svg width="65" height="64" viewBox="0 0 65 64" fill="none" xmlns="http://www.w3.org/2000/svg">
<g id="icon/indigenous">
<path id="Vector" d="M38 50.6665C38 46.423 36.3143 42.3534 33.3137 39.3528C30.3131 36.3522 26.2435 34.6665 22 34.6665C17.7565 34.6665 13.6869 36.3522 10.6863 39.3528C7.68571 42.3534 6 46.423 6 50.6665" stroke="#263C44" stroke-linecap="round" stroke-linejoin="round"/>
<path id="Vector_2" d="M21.9997 34.6668C27.8907 34.6668 32.6663 29.8912 32.6663 24.0002C32.6663 18.1091 27.8907 13.3335 21.9997 13.3335C16.1086 13.3335 11.333 18.1091 11.333 24.0002C11.333 29.8912 16.1086 34.6668 21.9997 34.6668Z" fill="#00CC99"/>
<path id="Vector_3" d="M59.333 50.6668C59.333 46.4234 57.6473 42.3537 54.6467 39.3531C51.6461 36.3525 47.5765 34.6668 43.333 34.6668C46.162 34.6668 48.8751 33.543 50.8755 31.5426C52.8759 29.5422 53.9997 26.8291 53.9997 24.0002C53.9997 21.1712 52.8759 18.4581 50.8755 16.4577C48.8751 14.4573 46.162 13.3335 43.333 13.3335" stroke="#263C44" stroke-linecap="round" stroke-linejoin="round"/>
</g>
</svg>
