<svg width="48" height="48" viewBox="0 0 48 48" fill="none" xmlns="http://www.w3.org/2000/svg">
<g id="newsletter">
<path id="Vector" d="M44 34C44 35.0609 43.5786 36.0783 42.8284 36.8284C42.0783 37.5786 41.0609 38 40 38H8C6.93913 38 5.92172 37.5786 5.17157 36.8284C4.42143 36.0783 4 35.0609 4 34V19C4 14 8 10 13 10H36C40.4 10 44 13.6 44 18V34Z" stroke="#263C44" stroke-width="2" stroke-linecap="round" stroke-linejoin="round"/>
<path id="Vector_2" d="M30 18H36V22" stroke="#263C44" stroke-width="2" stroke-linecap="round" stroke-linejoin="round"/>
<path id="Union" fill-rule="evenodd" clip-rule="evenodd" d="M12 10C12 9.44772 12.4477 9 13 9C18.5523 9 23 13.4477 23 19V34C23 35.3261 22.4732 36.5979 21.5355 37.5355C20.5979 38.4732 19.3261 39 18 39C17.4477 39 17 38.5523 17 38C17 37.4477 17.4477 37 18 37C18.7956 37 19.5587 36.6839 20.1213 36.1213C20.6839 35.5587 21 34.7956 21 34V19C21 14.5523 17.4477 11 13 11C12.4477 11 12 10.5523 12 10Z" fill="#263C44"/>
<path id="Vector_3" d="M12 20H14" stroke="#263C44" stroke-width="2" stroke-linecap="round" stroke-linejoin="round"/>
</g>
</svg>
