<svg width="40" height="40" viewBox="0 0 40 40" fill="none" xmlns="http://www.w3.org/2000/svg">

<path id="Vector" d="M36.6663 28.3335C36.6663 29.2176 36.3152 30.0654 35.69 30.6905C35.0649 31.3156 34.2171 31.6668 33.333 31.6668H6.66634C5.78229 31.6668 4.93444 31.3156 4.30932 30.6905C3.6842 30.0654 3.33301 29.2176 3.33301 28.3335V15.8335C3.33301 11.6668 6.66634 8.3335 10.833 8.3335H29.9997C33.6663 8.3335 36.6663 11.3335 36.6663 15.0002V28.3335Z" stroke-width="2" stroke-linecap="round" stroke-linejoin="round"/>
<path id="Vector_2" d="M25 15H30V18.3333" stroke-width="2" stroke-linecap="round" stroke-linejoin="round"/>
<path id="Union" fill-rule="evenodd" clip-rule="evenodd" d="M9.83301 8.3335C9.83301 7.78121 10.2807 7.3335 10.833 7.3335C15.552 7.3335 19.333 11.1145 19.333 15.8335V28.3335C19.333 29.4828 18.8765 30.585 18.0638 31.3976C17.2511 32.2103 16.1489 32.6668 14.9997 32.6668C14.4474 32.6668 13.9997 32.2191 13.9997 31.6668C13.9997 31.1145 14.4474 30.6668 14.9997 30.6668C15.6185 30.6668 16.212 30.421 16.6496 29.9834C17.0872 29.5458 17.333 28.9523 17.333 28.3335V15.8335C17.333 12.2191 14.4474 9.3335 10.833 9.3335C10.2807 9.3335 9.83301 8.88578 9.83301 8.3335Z" fill="#FFFEFA"/>
<path id="Vector_3" d="M10 16.6665H11.6667" stroke-width="2" stroke-linecap="round" stroke-linejoin="round"/>

</svg>
