<svg width="64" height="64" viewBox="0 0 64 64" fill="none" xmlns="http://www.w3.org/2000/svg">
<g id="icon/indigenous">
<path id="Vector" d="M37.3335 50.6665C37.3335 46.423 35.6478 42.3534 32.6472 39.3528C29.6466 36.3522 25.577 34.6665 21.3335 34.6665C17.09 34.6665 13.0204 36.3522 10.0198 39.3528C7.01921 42.3534 5.3335 46.423 5.3335 50.6665" stroke="#263C44" stroke-linecap="round" stroke-linejoin="round"/>
<path id="Vector_2" d="M21.3332 34.6668C27.2242 34.6668 31.9998 29.8912 31.9998 24.0002C31.9998 18.1091 27.2242 13.3335 21.3332 13.3335C15.4421 13.3335 10.6665 18.1091 10.6665 24.0002C10.6665 29.8912 15.4421 34.6668 21.3332 34.6668Z" fill="#00CC99"/>
<path id="Vector_3" d="M58.6665 50.6668C58.6665 46.4234 56.9808 42.3537 53.9802 39.3531C50.9796 36.3525 46.91 34.6668 42.6665 34.6668C45.4955 34.6668 48.2086 33.543 50.209 31.5426C52.2094 29.5422 53.3332 26.8291 53.3332 24.0002C53.3332 21.1712 52.2094 18.4581 50.209 16.4577C48.2086 14.4573 45.4955 13.3335 42.6665 13.3335" stroke="#263C44" stroke-linecap="round" stroke-linejoin="round"/>
</g>
</svg>
