<svg width="64" height="64" viewBox="0 0 64 64" fill="none" xmlns="http://www.w3.org/2000/svg">
<g id="icon/managers">
<path id="Vector" d="M32.0002 58.6668C46.7278 58.6668 58.6668 46.7278 58.6668 32.0002C58.6668 17.2726 46.7278 5.3335 32.0002 5.3335C17.2726 5.3335 5.3335 17.2726 5.3335 32.0002C5.3335 46.7278 17.2726 58.6668 32.0002 58.6668Z" stroke="#263C44" stroke-linecap="round" stroke-linejoin="round"/>
<path id="Vector_2" d="M32 48C40.8366 48 48 40.8366 48 32C48 23.1634 40.8366 16 32 16C23.1634 16 16 23.1634 16 32C16 40.8366 23.1634 48 32 48Z" stroke="#263C44" stroke-linecap="round" stroke-linejoin="round"/>
<path id="Vector_3" d="M31.9998 37.3332C34.9454 37.3332 37.3332 34.9454 37.3332 31.9998C37.3332 29.0543 34.9454 26.6665 31.9998 26.6665C29.0543 26.6665 26.6665 29.0543 26.6665 31.9998C26.6665 34.9454 29.0543 37.3332 31.9998 37.3332Z" fill="#00CC99"/>
</g>
</svg>
