<svg width="312" height="624" viewBox="0 0 312 624" fill="none" xmlns="http://www.w3.org/2000/svg">
<g opacity="0.12">
<g clip-path="url(#clip0_1675_17983)">
<path d="M-0.531479 336.016C11.8842 336.016 21.949 325.951 21.949 313.535C21.949 301.12 11.8842 291.055 -0.531479 291.055C-12.9471 291.055 -23.012 301.12 -23.012 313.535C-23.012 325.951 -12.9471 336.016 -0.531479 336.016Z" fill="#E23248"/>
<path d="M-0.531479 561.924C11.6133 561.924 21.4585 552.079 21.4585 539.934C21.4585 527.789 11.6133 517.944 -0.531479 517.944C-12.6762 517.944 -22.5215 527.789 -22.5215 539.934C-22.5215 552.079 -12.6762 561.924 -0.531479 561.924Z" fill="#40BB93"/>
<path d="M219.287 405.419C231.432 405.419 241.277 395.574 241.277 383.429C241.277 371.284 231.432 361.439 219.287 361.439C207.142 361.439 197.297 371.284 197.297 383.429C197.297 395.574 207.142 405.419 219.287 405.419Z" fill="#40BB93"/>
<path d="M133.902 151.144C146.047 151.144 155.892 141.299 155.892 129.154C155.892 117.01 146.047 107.164 133.902 107.164C121.757 107.164 111.912 117.01 111.912 129.154C111.912 141.299 121.757 151.144 133.902 151.144Z" fill="#40BB93"/>
<path d="M133.902 522.072C148.146 522.072 159.693 510.525 159.693 496.281C159.693 482.037 148.146 470.49 133.902 470.49C119.658 470.49 108.111 482.037 108.111 496.281C108.111 510.525 119.658 522.072 133.902 522.072Z" fill="#40BB93"/>
<path d="M216.875 267.266C231.119 267.266 242.666 255.719 242.666 241.475C242.666 227.231 231.119 215.684 216.875 215.684C202.631 215.684 191.084 227.231 191.084 241.475C191.084 255.719 202.631 267.266 216.875 267.266Z" fill="#40BB93"/>
<path d="M-0.531502 110.516C13.7126 110.516 25.2598 98.9687 25.2598 84.7246C25.2598 70.4805 13.7126 58.9333 -0.531502 58.9333C-14.7756 58.9333 -26.3228 70.4805 -26.3228 84.7246C-26.3228 98.9687 -14.7756 110.516 -0.531502 110.516Z" fill="#40BB93"/>
<path d="M129.692 236.979C139.624 236.979 147.676 228.927 147.676 218.994C147.676 209.062 139.624 201.01 129.692 201.01C119.759 201.01 111.708 209.062 111.708 218.994C111.708 228.927 119.759 236.979 129.692 236.979Z" fill="#4FB9DB"/>
<path d="M129.692 426.387C139.624 426.387 147.676 418.335 147.676 408.403C147.676 398.47 139.624 390.418 129.692 390.418C119.759 390.418 111.708 398.47 111.708 408.403C111.708 418.335 119.759 426.387 129.692 426.387Z" fill="#4FB9DB"/>
<path d="M60.0842 250.549C70.0167 250.549 78.0686 242.497 78.0686 232.564C78.0686 222.632 70.0167 214.58 60.0842 214.58C50.1517 214.58 42.0999 222.632 42.0999 232.564C42.0999 242.497 50.1517 250.549 60.0842 250.549Z" fill="#D9D6CC"/>
<path d="M97.9739 365.199C107.906 365.199 115.958 357.147 115.958 347.215C115.958 337.282 107.906 329.23 97.9739 329.23C88.0414 329.23 79.9895 337.282 79.9895 347.215C79.9895 357.147 88.0414 365.199 97.9739 365.199Z" fill="#D9D6CC"/>
<path d="M-0.531462 437.586C9.40105 437.586 17.4529 429.535 17.4529 419.602C17.4529 409.67 9.40105 401.618 -0.531462 401.618C-10.464 401.618 -18.5159 409.67 -18.5159 419.602C-18.5159 429.535 -10.464 437.586 -0.531462 437.586Z" fill="#D9D6CC"/>
<path d="M48.8848 484.959C58.8173 484.959 66.8692 476.907 66.8692 466.975C66.8692 457.042 58.8173 448.99 48.8848 448.99C38.9523 448.99 30.9004 457.042 30.9004 466.975C30.9004 476.907 38.9523 484.959 48.8848 484.959Z" fill="#2378AC"/>
<path d="M161.287 331.52C171.22 331.52 179.272 323.468 179.272 313.535C179.272 303.603 171.22 295.551 161.287 295.551C151.355 295.551 143.303 303.603 143.303 313.535C143.303 323.468 151.355 331.52 161.287 331.52Z" fill="#2378AC"/>
<path d="M51.1328 177.957C61.0653 177.957 69.1172 169.905 69.1172 159.973C69.1172 150.04 61.0653 141.989 51.1328 141.989C41.2003 141.989 33.1484 150.04 33.1484 159.973C33.1484 169.905 41.2003 177.957 51.1328 177.957Z" fill="#2378AC"/>
<path d="M-0.40889 223.777C7.15336 223.777 13.2838 217.646 13.2838 210.084C13.2838 202.522 7.15336 196.391 -0.40889 196.391C-7.97114 196.391 -14.1016 202.522 -14.1016 210.084C-14.1016 217.646 -7.97114 223.777 -0.40889 223.777Z" fill="#D9D6CC"/>
<path d="M97.9739 296.45C105.536 296.45 111.667 290.32 111.667 282.757C111.667 275.195 105.536 269.065 97.9739 269.065C90.4117 269.065 84.2812 275.195 84.2812 282.757C84.2812 290.32 90.4117 296.45 97.9739 296.45Z" fill="#D9D6CC"/>
<path d="M60.0843 410.855C67.6465 410.855 73.7769 404.725 73.7769 397.163C73.7769 389.6 67.6465 383.47 60.0843 383.47C52.522 383.47 46.3916 389.6 46.3916 397.163C46.3916 404.725 52.522 410.855 60.0843 410.855Z" fill="#D9D6CC"/>
</g>
</g>
<defs>
<clipPath id="clip0_1675_17983">
<rect width="485.333" height="502.95" fill="white" transform="translate(-242.667 58.9333)"/>
</clipPath>
</defs>
</svg>
