<svg width="742" height="624" viewBox="0 0 742 624" fill="none" xmlns="http://www.w3.org/2000/svg">
<g clip-path="url(#clip0_1829_1034)">
<path d="M390.145 350.64C410.122 350.64 426.316 334.446 426.316 314.47C426.316 294.493 410.122 278.299 390.145 278.299C370.169 278.299 353.975 294.493 353.975 314.47C353.975 334.446 370.169 350.64 390.145 350.64Z" fill="#E23248"/>
<path d="M292.024 209.378C308.005 209.378 320.961 196.423 320.961 180.442C320.961 164.461 308.005 151.505 292.024 151.505C276.043 151.505 263.088 164.461 263.088 180.442C263.088 196.423 276.043 209.378 292.024 209.378Z" fill="#D9D6CC"/>
<path d="M42.0531 243.773C64.9715 243.773 83.5506 225.194 83.5506 202.276C83.5506 179.357 64.9715 160.778 42.0531 160.778C19.1347 160.778 0.555664 179.357 0.555664 202.276C0.555664 225.194 19.1347 243.773 42.0531 243.773Z" fill="#40BB93"/>
<path d="M43.0396 462.309C62.5802 462.309 78.4209 446.468 78.4209 426.927C78.4209 407.387 62.5802 391.546 43.0396 391.546C23.499 391.546 7.6582 407.387 7.6582 426.927C7.6582 446.468 23.499 462.309 43.0396 462.309Z" fill="#40BB93"/>
<path d="M129.915 343.407C145.896 343.407 158.851 330.451 158.851 314.47C158.851 298.489 145.896 285.534 129.915 285.534C113.934 285.534 100.978 298.489 100.978 314.47C100.978 330.451 113.934 343.407 129.915 343.407Z" fill="#4FB9DB"/>
<path d="M181.014 191.293C196.995 191.293 209.95 178.338 209.95 162.356C209.95 146.375 196.995 133.42 181.014 133.42C165.033 133.42 152.077 146.375 152.077 162.356C152.077 178.338 165.033 191.293 181.014 191.293Z" fill="#2378AC"/>
<path d="M232.507 286.98C244.675 286.98 254.539 277.117 254.539 264.949C254.539 252.782 244.675 242.918 232.507 242.918C220.34 242.918 210.476 252.782 210.476 264.949C210.476 277.117 220.34 286.98 232.507 286.98Z" fill="#D9D6CC"/>
<path d="M743.827 462.309C763.368 462.309 779.209 446.468 779.209 426.927C779.209 407.387 763.368 391.546 743.827 391.546C724.287 391.546 708.446 407.387 708.446 426.927C708.446 446.468 724.287 462.309 743.827 462.309Z" fill="#40BB93"/>
<path d="M606.445 53.1873C625.986 53.1873 641.826 37.3465 641.826 17.8059C641.826 -1.73467 625.986 -17.5754 606.445 -17.5754C586.904 -17.5754 571.064 -1.73467 571.064 17.8059C571.064 37.3465 586.904 53.1873 606.445 53.1873Z" fill="#40BB93"/>
<path d="M177.002 53.1873C196.543 53.1873 212.384 37.3465 212.384 17.8059C212.384 -1.73467 196.543 -17.5754 177.002 -17.5754C157.462 -17.5754 141.621 -1.73467 141.621 17.8059C141.621 37.3465 157.462 53.1873 177.002 53.1873Z" fill="#40BB93"/>
<path d="M177.002 650.001C199.921 650.001 218.5 631.422 218.5 608.504C218.5 585.585 199.921 567.006 177.002 567.006C154.084 567.006 135.505 585.585 135.505 608.504C135.505 631.422 154.084 650.001 177.002 650.001Z" fill="#40BB93"/>
<path d="M606.445 650.001C629.363 650.001 647.942 631.422 647.942 608.504C647.942 585.585 629.363 567.006 606.445 567.006C583.527 567.006 564.948 585.585 564.948 608.504C564.948 631.422 583.527 650.001 606.445 650.001Z" fill="#40BB93"/>
<path d="M739.947 240.024C762.866 240.024 781.445 221.445 781.445 198.527C781.445 175.609 762.866 157.03 739.947 157.03C717.029 157.03 698.45 175.609 698.45 198.527C698.45 221.445 717.029 240.024 739.947 240.024Z" fill="#40BB93"/>
<path d="M310.11 96.3289C326.091 96.3289 339.046 83.3736 339.046 67.3925C339.046 51.4113 326.091 38.4561 310.11 38.4561C294.129 38.4561 281.173 51.4113 281.173 67.3925C281.173 83.3736 294.129 96.3289 310.11 96.3289Z" fill="#4FB9DB"/>
<path d="M599.671 191.293C615.652 191.293 628.608 178.338 628.608 162.356C628.608 146.375 615.652 133.42 599.671 133.42C583.69 133.42 570.735 146.375 570.735 162.356C570.735 178.338 583.69 191.293 599.671 191.293Z" fill="#4FB9DB"/>
<path d="M599.671 496.046C615.652 496.046 628.608 483.091 628.608 467.11C628.608 451.128 615.652 438.173 599.671 438.173C583.69 438.173 570.735 451.128 570.735 467.11C570.735 483.091 583.69 496.046 599.671 496.046Z" fill="#4FB9DB"/>
<path d="M310.11 590.287C326.091 590.287 339.046 577.331 339.046 561.35C339.046 545.369 326.091 532.414 310.11 532.414C294.129 532.414 281.173 545.369 281.173 561.35C281.173 577.331 294.129 590.287 310.11 590.287Z" fill="#4FB9DB"/>
<path d="M487.674 213.127C503.655 213.127 516.611 200.171 516.611 184.19C516.611 168.209 503.655 155.254 487.674 155.254C471.693 155.254 458.738 168.209 458.738 184.19C458.738 200.171 471.693 213.127 487.674 213.127Z" fill="#D9D6CC"/>
<path d="M548.638 397.596C564.619 397.596 577.574 384.641 577.574 368.66C577.574 352.679 564.619 339.724 548.638 339.724C532.657 339.724 519.701 352.679 519.701 368.66C519.701 384.641 532.657 397.596 548.638 397.596Z" fill="#D9D6CC"/>
<path d="M390.145 514.066C406.126 514.066 419.082 501.11 419.082 485.129C419.082 469.148 406.126 456.193 390.145 456.193C374.164 456.193 361.209 469.148 361.209 485.129C361.209 501.11 374.164 514.066 390.145 514.066Z" fill="#D9D6CC"/>
<path d="M232.507 397.596C248.489 397.596 261.444 384.641 261.444 368.66C261.444 352.679 248.489 339.724 232.507 339.724C216.526 339.724 203.571 352.679 203.571 368.66C203.571 384.641 216.526 397.596 232.507 397.596Z" fill="#D9D6CC"/>
<path d="M181.014 496.046C196.995 496.046 209.95 483.091 209.95 467.11C209.95 451.128 196.995 438.173 181.014 438.173C165.033 438.173 152.077 451.128 152.077 467.11C152.077 483.091 165.033 496.046 181.014 496.046Z" fill="#2378AC"/>
<path d="M469.655 590.287C485.636 590.287 498.591 577.331 498.591 561.35C498.591 545.369 485.636 532.414 469.655 532.414C453.674 532.414 440.718 545.369 440.718 561.35C440.718 577.331 453.674 590.287 469.655 590.287Z" fill="#2378AC"/>
<path d="M650.507 343.407C666.488 343.407 679.444 330.451 679.444 314.47C679.444 298.489 666.488 285.534 650.507 285.534C634.526 285.534 621.571 298.489 621.571 314.47C621.571 330.451 634.526 343.407 650.507 343.407Z" fill="#2378AC"/>
<path d="M473.272 96.3289C489.253 96.3289 502.208 83.3736 502.208 67.3925C502.208 51.4113 489.253 38.4561 473.272 38.4561C457.29 38.4561 444.335 51.4113 444.335 67.3925C444.335 83.3736 457.29 96.3289 473.272 96.3289Z" fill="#2378AC"/>
<path d="M390.342 170.051C402.51 170.051 412.374 160.187 412.374 148.02C412.374 135.852 402.51 125.989 390.342 125.989C378.175 125.989 368.311 135.852 368.311 148.02C368.311 160.187 378.175 170.051 390.342 170.051Z" fill="#D9D6CC"/>
<path d="M548.638 286.98C560.805 286.98 570.669 277.117 570.669 264.949C570.669 252.782 560.805 242.918 548.638 242.918C536.47 242.918 526.607 252.782 526.607 264.949C526.607 277.117 536.47 286.98 548.638 286.98Z" fill="#D9D6CC"/>
<path d="M487.674 471.055C499.842 471.055 509.705 461.192 509.705 449.024C509.705 436.857 499.842 426.993 487.674 426.993C475.507 426.993 465.643 436.857 465.643 449.024C465.643 461.192 475.507 471.055 487.674 471.055Z" fill="#D9D6CC"/>
<path d="M293.537 475.33C305.704 475.33 315.568 465.467 315.568 453.299C315.568 441.132 305.704 431.268 293.537 431.268C281.37 431.268 271.506 441.132 271.506 453.299C271.506 465.467 281.37 475.33 293.537 475.33Z" fill="#D9D6CC"/>
</g>
<defs>
<clipPath id="clip0_1829_1034">
<rect width="780.889" height="809.233" fill="white" transform="translate(0.555664 -95.1777)"/>
</clipPath>
</defs>
</svg>
