<svg width="40" height="40" viewBox="0 0 40 40" fill="none" xmlns="http://www.w3.org/2000/svg">
<g id="checkmark">
<circle id="Ellipse 84" cx="20" cy="20" r="13" fill="#00CC99"/>
<path id="Vector" d="M36.6668 18.4666V19.9999C36.6648 23.594 35.501 27.0911 33.3491 29.9696C31.1971 32.8482 28.1723 34.9541 24.7258 35.9731C21.2792 36.9921 17.5956 36.8698 14.2243 35.6242C10.853 34.3787 7.97459 32.0768 6.01843 29.0617C4.06227 26.0467 3.13315 22.48 3.36962 18.8938C3.6061 15.3075 4.99551 11.8938 7.33063 9.16173C9.66575 6.42964 12.8215 4.52557 16.3271 3.73351C19.8328 2.94145 23.5006 3.30383 26.7835 4.7666" stroke="#263C44" stroke-linecap="round" stroke-linejoin="round"/>
<path id="Vector_2" d="M36.6667 6.6665L20 23.3498L15 18.3498" stroke="#263C44" stroke-linecap="round" stroke-linejoin="round"/>
</g>
</svg>
