<svg width="1167" height="578" viewBox="0 0 1167 578" fill="none" xmlns="http://www.w3.org/2000/svg">
<g opacity="0.1">
<path d="M583.5 388C600.897 388 615 373.897 615 356.5C615 339.103 600.897 325 583.5 325C566.103 325 552 339.103 552 356.5C552 373.897 566.103 388 583.5 388Z" fill="#C9C6BD"/>
<path d="M469.5 418C486.897 418 501 403.897 501 386.5C501 369.103 486.897 355 469.5 355C452.103 355 438 369.103 438 386.5C438 403.897 452.103 418 469.5 418Z" fill="#C9C6BD"/>
<path d="M386.5 501C403.897 501 418 486.897 418 469.5C418 452.103 403.897 438 386.5 438C369.103 438 355 452.103 355 469.5C355 486.897 369.103 501 386.5 501Z" fill="#C9C6BD"/>
<path d="M356.5 615C373.897 615 388 600.897 388 583.5C388 566.103 373.897 552 356.5 552C339.103 552 325 566.103 325 583.5C325 600.897 339.103 615 356.5 615Z" fill="#C9C6BD"/>
<path d="M810.5 615C827.897 615 842 600.897 842 583.5C842 566.103 827.897 552 810.5 552C793.103 552 779 566.103 779 583.5C779 600.897 793.103 615 810.5 615Z" fill="#C9C6BD"/>
<path d="M780.5 501C797.897 501 812 486.897 812 469.5C812 452.103 797.897 438 780.5 438C763.103 438 749 452.103 749 469.5C749 486.897 763.103 501 780.5 501Z" fill="#C9C6BD"/>
<path d="M697 418C714.121 418 728 403.897 728 386.5C728 369.103 714.121 355 697 355C679.879 355 666 369.103 666 386.5C666 403.897 679.879 418 697 418Z" fill="#C9C6BD"/>
<path d="M583.5 152C600.897 152 615 138.121 615 121C615 103.879 600.897 90 583.5 90C566.103 90 552 103.879 552 121C552 138.121 566.103 152 583.5 152Z" fill="#02C6EC"/>
<path d="M352.5 214C369.897 214 384 200.121 384 183C384 165.879 369.897 152 352.5 152C335.103 152 321 165.879 321 183C321 200.121 335.103 214 352.5 214Z" fill="#02C6EC"/>
<path d="M183 384C200.121 384 214 369.897 214 352.5C214 335.103 200.121 321 183 321C165.879 321 152 335.103 152 352.5C152 369.897 165.879 384 183 384Z" fill="#02C6EC"/>
<path d="M121 615C138.121 615 152 600.897 152 583.5C152 566.103 138.121 552 121 552C103.879 552 90 566.103 90 583.5C90 600.897 103.879 615 121 615Z" fill="#02C6EC"/>
<path d="M1046 615C1063.12 615 1077 600.897 1077 583.5C1077 566.103 1063.12 552 1046 552C1028.88 552 1015 566.103 1015 583.5C1015 600.897 1028.88 615 1046 615Z" fill="#02C6EC"/>
<path d="M984 384C1001.12 384 1015 369.897 1015 352.5C1015 335.103 1001.12 321 984 321C966.879 321 953 335.103 953 352.5C953 369.897 966.879 384 984 384Z" fill="#02C6EC"/>
<path d="M814.5 214C831.897 214 846 200.121 846 183C846 165.879 831.897 152 814.5 152C797.103 152 783 165.879 783 183C783 200.121 797.103 214 814.5 214Z" fill="#02C6EC"/>
<path d="M999.5 183C1008.06 183 1015 176.06 1015 167.5C1015 158.94 1008.06 152 999.5 152C990.94 152 984 158.94 984 167.5C984 176.06 990.94 183 999.5 183Z" fill="#1DEABD"/>
<path d="M735.5 31C744.06 31 751 24.0604 751 15.5C751 6.93959 744.06 0 735.5 0C726.94 0 720 6.93959 720 15.5C720 24.0604 726.94 31 735.5 31Z" fill="#1DEABD"/>
<path d="M431.5 31C440.06 31 447 24.0604 447 15.5C447 6.93959 440.06 0 431.5 0C422.94 0 416 6.93959 416 15.5C416 24.0604 422.94 31 431.5 31Z" fill="#1DEABD"/>
<path d="M167.5 183C176.06 183 183 176.06 183 167.5C183 158.94 176.06 152 167.5 152C158.94 152 152 158.94 152 167.5C152 176.06 158.94 183 167.5 183Z" fill="#1DEABD"/>
<path d="M15.5 447C24.0604 447 31 440.06 31 431.5C31 422.94 24.0604 416 15.5 416C6.93959 416 0 422.94 0 431.5C0 440.06 6.93959 447 15.5 447Z" fill="#1DEABD"/>
<path d="M1151.5 447C1160.06 447 1167 440.06 1167 431.5C1167 422.94 1160.06 416 1151.5 416C1142.94 416 1136 422.94 1136 431.5C1136 440.06 1142.94 447 1151.5 447Z" fill="#1DEABD"/>
<path d="M827 355C835.837 355 843 348.06 843 339.5C843 330.94 835.837 324 827 324C818.163 324 811 330.94 811 339.5C811 348.06 818.163 355 827 355Z" fill="#0079D0"/>
<path d="M672.5 266C681.06 266 688 259.06 688 250.5C688 241.94 681.06 235 672.5 235C663.94 235 657 241.94 657 250.5C657 259.06 663.94 266 672.5 266Z" fill="#0079D0"/>
<path d="M494 266C502.837 266 510 259.06 510 250.5C510 241.94 502.837 235 494 235C485.163 235 478 241.94 478 250.5C478 259.06 485.163 266 494 266Z" fill="#0079D0"/>
<path d="M339.5 356C348.06 356 355 348.837 355 340C355 331.163 348.06 324 339.5 324C330.94 324 324 331.163 324 340C324 348.837 330.94 356 339.5 356Z" fill="#0079D0"/>
<path d="M250.5 510C259.06 510 266 503.06 266 494.5C266 485.94 259.06 479 250.5 479C241.94 479 235 485.94 235 494.5C235 503.06 241.94 510 250.5 510Z" fill="#0079D0"/>
<path d="M916.5 510C925.06 510 932 502.837 932 494C932 485.163 925.06 478 916.5 478C907.94 478 901 485.163 901 494C901 502.837 907.94 510 916.5 510Z" fill="#0079D0"/>
<path d="M583.5 646C618.018 646 646 618.018 646 583.5C646 548.982 618.018 521 583.5 521C548.982 521 521 548.982 521 583.5C521 618.018 548.982 646 583.5 646Z" fill="#FC1A52"/>
</g>
</svg>
