<svg width="40" height="40" viewBox="0 0 40 40" fill="none" xmlns="http://www.w3.org/2000/svg">
<path d="M16.6667 6.66668C16.6667 4.82573 18.159 3.33334 20 3.33334C21.8409 3.33334 23.3333 4.82573 23.3333 6.66668V15C23.3333 16.841 21.8409 18.3333 20 18.3333C18.159 18.3333 16.6667 16.841 16.6667 15V6.66668Z" fill="#D6F1F3"/>
<path d="M20 17.5V31.6667" stroke="#263C44"/>
<path d="M20 31.6667C20 31.6667 20 21.6667 25.8333 19.1667" stroke="#263C44"/>
<path d="M20 31.6667C20 31.6667 20 21.6667 14.1667 19.1667" stroke="#263C44"/>
<path d="M20 1.66669L20 4.16669" stroke="#263C44"/>
<path d="M30 35C28.3315 35 28.3347 37 26.6661 37C24.9976 37 25.0008 35 23.3323 35C21.6637 35 21.6701 37 20.0016 37C18.3331 37 18.3363 35 16.6677 35C14.9992 35 15.0024 37 13.3339 37C11.6653 37 11.6685 35 10 35" stroke="#1C3038" stroke-miterlimit="10"/>
</svg>
