<svg width="642" height="1284" viewBox="0 0 642 1284" fill="none" xmlns="http://www.w3.org/2000/svg">
<g opacity="0.12">
<g clip-path="url(#clip0_824_18028)">
<path d="M-1.09364 691.416C24.4539 691.416 45.1642 670.706 45.1642 645.159C45.1642 619.611 24.4539 598.901 -1.09364 598.901C-26.6412 598.901 -47.3516 619.611 -47.3516 645.159C-47.3516 670.706 -26.6412 691.416 -1.09364 691.416Z" fill="#E23248"/>
<path d="M-1.0936 1156.27C23.8966 1156.27 44.1551 1136.01 44.1551 1111.02C44.1551 1086.03 23.8966 1065.77 -1.0936 1065.77C-26.0838 1065.77 -46.3423 1086.03 -46.3423 1111.02C-46.3423 1136.01 -26.0838 1156.27 -1.0936 1156.27Z" fill="#40BB93"/>
<path d="M451.225 834.227C476.215 834.227 496.473 813.969 496.473 788.979C496.473 763.988 476.215 743.73 451.225 743.73C426.235 743.73 405.976 763.988 405.976 788.979C405.976 813.969 426.235 834.227 451.225 834.227Z" fill="#40BB93"/>
<path d="M275.529 311.008C300.519 311.008 320.778 290.75 320.778 265.76C320.778 240.77 300.519 220.511 275.529 220.511C250.539 220.511 230.28 240.77 230.28 265.76C230.28 290.75 250.539 311.008 275.529 311.008Z" fill="#40BB93"/>
<path d="M275.529 1074.26C304.839 1074.26 328.599 1050.5 328.599 1021.19C328.599 991.883 304.839 968.123 275.529 968.123C246.219 968.123 222.458 991.883 222.458 1021.19C222.458 1050.5 246.219 1074.26 275.529 1074.26Z" fill="#40BB93"/>
<path d="M446.263 549.951C475.573 549.951 499.333 526.191 499.333 496.881C499.333 467.571 475.573 443.811 446.263 443.811C416.953 443.811 393.192 467.571 393.192 496.881C393.192 526.191 416.953 549.951 446.263 549.951Z" fill="#40BB93"/>
<path d="M-1.09358 227.408C28.2164 227.408 51.9769 203.647 51.9769 174.337C51.9769 145.027 28.2164 121.267 -1.09358 121.267C-30.4036 121.267 -54.1641 145.027 -54.1641 174.337C-54.1641 203.647 -30.4036 227.408 -1.09358 227.408Z" fill="#40BB93"/>
<path d="M266.866 487.629C287.304 487.629 303.873 471.061 303.873 450.623C303.873 430.185 287.304 413.617 266.866 413.617C246.428 413.617 229.86 430.185 229.86 450.623C229.86 471.061 246.428 487.629 266.866 487.629Z" fill="#4FB9DB"/>
<path d="M266.866 877.374C287.304 877.374 303.873 860.805 303.873 840.367C303.873 819.929 287.304 803.361 266.866 803.361C246.428 803.361 229.86 819.929 229.86 840.367C229.86 860.805 246.428 877.374 266.866 877.374Z" fill="#4FB9DB"/>
<path d="M123.635 515.552C144.073 515.552 160.641 498.984 160.641 478.546C160.641 458.108 144.073 441.54 123.635 441.54C103.197 441.54 86.6284 458.108 86.6284 478.546C86.6284 498.984 103.197 515.552 123.635 515.552Z" fill="#D9D6CC"/>
<path d="M201.6 751.468C222.038 751.468 238.606 734.899 238.606 714.461C238.606 694.023 222.038 677.455 201.6 677.455C181.162 677.455 164.594 694.023 164.594 714.461C164.594 734.899 181.162 751.468 201.6 751.468Z" fill="#D9D6CC"/>
<path d="M-1.09325 900.418C19.3448 900.418 35.9131 883.85 35.9131 863.412C35.9131 842.974 19.3448 826.406 -1.09325 826.406C-21.5313 826.406 -38.0996 842.974 -38.0996 863.412C-38.0996 883.85 -21.5313 900.418 -1.09325 900.418Z" fill="#D9D6CC"/>
<path d="M100.59 997.896C121.028 997.896 137.596 981.328 137.596 960.89C137.596 940.452 121.028 923.884 100.59 923.884C80.1518 923.884 63.5835 940.452 63.5835 960.89C63.5835 981.328 80.1518 997.896 100.59 997.896Z" fill="#2378AC"/>
<path d="M331.879 682.165C352.317 682.165 368.886 665.597 368.886 645.159C368.886 624.721 352.317 608.152 331.879 608.152C311.441 608.152 294.873 624.721 294.873 645.159C294.873 665.597 311.441 682.165 331.879 682.165Z" fill="#2378AC"/>
<path d="M105.216 366.181C125.654 366.181 142.222 349.613 142.222 329.175C142.222 308.737 125.654 292.169 105.216 292.169C84.7777 292.169 68.2095 308.737 68.2095 329.175C68.2095 349.613 84.7777 366.181 105.216 366.181Z" fill="#2378AC"/>
<path d="M-0.841293 460.463C14.7195 460.463 27.334 447.849 27.334 432.288C27.334 416.727 14.7195 404.113 -0.841293 404.113C-16.4021 404.113 -29.0166 416.727 -29.0166 432.288C-29.0166 447.849 -16.4021 460.463 -0.841293 460.463Z" fill="#D9D6CC"/>
<path d="M201.6 610.003C217.161 610.003 229.775 597.388 229.775 581.827C229.775 566.267 217.161 553.652 201.6 553.652C186.039 553.652 173.425 566.267 173.425 581.827C173.425 597.388 186.039 610.003 201.6 610.003Z" fill="#D9D6CC"/>
<path d="M123.635 845.414C139.196 845.414 151.81 832.799 151.81 817.238C151.81 801.677 139.196 789.063 123.635 789.063C108.074 789.063 95.4595 801.677 95.4595 817.238C95.4595 832.799 108.074 845.414 123.635 845.414Z" fill="#D9D6CC"/>
</g>
</g>
<defs>
<clipPath id="clip0_824_18028">
<rect width="998.667" height="1034.92" fill="white" transform="translate(-499.333 121.267)"/>
</clipPath>
</defs>
</svg>
