<svg width="72" height="80" viewBox="0 0 72 80" fill="none" xmlns="http://www.w3.org/2000/svg">
<path d="M5.34424 21.7342L67.0432 57.1008"  stroke-miterlimit="10" stroke-dasharray="4 4"/>
<path d="M67.0432 21.7342L5.34424 57.1008"  stroke-miterlimit="10" stroke-dasharray="4 4"/>
<path d="M36.5444 4.45569V75.5443"  stroke-miterlimit="10" stroke-dasharray="4 4"/>
<path d="M36.5441 9.39873C39.0014 9.39873 40.9935 7.40668 40.9935 4.94937C40.9935 2.49205 39.0014 0.5 36.5441 0.5C34.0868 0.5 32.0947 2.49205 32.0947 4.94937C32.0947 7.40668 34.0868 9.39873 36.5441 9.39873Z" fill="#1C3038" />
<path d="M36.5442 47.405C40.6339 47.405 43.9493 44.0897 43.9493 40C43.9493 35.9103 40.6339 32.5949 36.5442 32.5949C32.4545 32.5949 29.1392 35.9103 29.1392 40C29.1392 44.0897 32.4545 47.405 36.5442 47.405Z" fill="#00CC99"/>
<path d="M5.8478 27.3486C8.30512 27.3486 10.2972 25.3566 10.2972 22.8993C10.2972 20.4419 8.30512 18.4499 5.8478 18.4499C3.39049 18.4499 1.39844 20.4419 1.39844 22.8993C1.39844 25.3566 3.39049 27.3486 5.8478 27.3486Z" fill="#1C3038" />
<path d="M6.34146 62.3992C8.79877 62.3992 10.7908 60.4072 10.7908 57.9499C10.7908 55.4925 8.79877 53.5005 6.34146 53.5005C3.88414 53.5005 1.89209 55.4925 1.89209 57.9499C1.89209 60.4072 3.88414 62.3992 6.34146 62.3992Z" fill="#1C3038" />
<path d="M36.5441 79.5C39.0014 79.5 40.9935 77.5079 40.9935 75.0506C40.9935 72.5933 39.0014 70.6013 36.5441 70.6013C34.0868 70.6013 32.0947 72.5933 32.0947 75.0506C32.0947 77.5079 34.0868 79.5 36.5441 79.5Z" fill="#1C3038" />
<path d="M67.0431 61.5502C69.5004 61.5502 71.4925 59.5581 71.4925 57.1008C71.4925 54.6435 69.5004 52.6514 67.0431 52.6514C64.5858 52.6514 62.5938 54.6435 62.5938 57.1008C62.5938 59.5581 64.5858 61.5502 67.0431 61.5502Z" fill="#1C3038" />
<path d="M66.5495 26.4995C69.0068 26.4995 70.9988 24.5075 70.9988 22.0501C70.9988 19.5928 69.0068 17.6008 66.5495 17.6008C64.0921 17.6008 62.1001 19.5928 62.1001 22.0501C62.1001 24.5075 64.0921 26.4995 66.5495 26.4995Z" fill="#1C3038" />
</svg>