<svg width="59" height="66" viewBox="0 0 59 66" fill="none" xmlns="http://www.w3.org/2000/svg">
<path d="M4 22C3.29797 22 2.61371 21.8133 2.00055 21.4667C0.0899553 20.3644 -0.567643 17.9111 0.534279 16C1.2452 14.7644 2.57817 14 4 14C4.69314 14 5.38629 14.1867 5.99945 14.5333C7.91004 15.6356 8.56764 18.0889 7.46572 20C6.7548 21.2356 5.42183 22 4 22Z" fill="#00CC99"/>
<path d="M4 50.9491C2.56928 50.9491 1.2452 50.1847 0.534279 48.9491C-0.567643 47.038 0.0899553 44.5847 2.00055 43.4824C2.60483 43.1269 3.29797 42.9491 4 42.9491C5.42183 42.9491 6.7548 43.7135 7.46572 44.9491C8.56764 46.8602 7.91005 49.3135 5.99945 50.4158C5.39518 50.7713 4.70203 50.9491 4 50.9491Z" fill="#00CC99"/>
<path d="M30 8C32.2091 8 34 6.20914 34 4C34 1.79086 32.2091 0 30 0C27.7909 0 26 1.79086 26 4C26 6.20914 27.7909 8 30 8Z" fill="#00CC99"/>
<path d="M30 37C32.2091 37 34 35.2091 34 33C34 30.7909 32.2091 29 30 29C27.7909 29 26 30.7909 26 33C26 35.2091 27.7909 37 30 37Z" fill="#00CC99"/>
<path d="M30 65.8983C32.2091 65.8983 34 64.1075 34 61.8983C34 59.6892 32.2091 57.8983 30 57.8983C27.7909 57.8983 26 59.6892 26 61.8983C26 64.1075 27.7909 65.8983 30 65.8983Z" fill="#00CC99"/>
<path d="M55 51.4237C54.3069 51.4237 53.6137 51.237 53.0005 50.8904C51.09 49.7882 50.4324 47.3348 51.5343 45.4237C52.2452 44.1882 53.5782 43.4237 55 43.4237C55.702 43.4237 56.3863 43.6104 56.9995 43.957C58.91 45.0593 59.5676 47.5126 58.4657 49.4237C57.7548 50.6593 56.4218 51.4237 55 51.4237Z" fill="#00CC99"/>
<path d="M55 22.4746C53.5782 22.4746 52.2452 21.7102 51.5343 20.4746C50.4324 18.5635 51.09 16.1102 53.0005 15.0079C53.6048 14.6524 54.298 14.4746 55 14.4746C56.4307 14.4746 57.7548 15.2391 58.4657 16.4746C59.5676 18.3857 58.91 20.8391 56.9995 21.9413C56.3952 22.2968 55.702 22.4746 55 22.4746Z" fill="#00CC99"/>
</svg>
