<svg width="48" height="48" viewBox="0 0 48 48" fill="none" xmlns="http://www.w3.org/2000/svg">
<path d="M24 5.24994V8.44994" stroke="white"/>
<path d="M17.792 6.06604L18.624 9.15404" stroke="white"/>
<path d="M12 8.46588L13.6 11.2339" stroke="white"/>
<path d="M7.03223 12.282L9.29623 14.546" stroke="white"/>
<path d="M3.21582 17.2499L5.98382 18.8499" stroke="white"/>
<path d="M0.815918 23.0419L3.90392 23.8739" stroke="white"/>
<path d="M0 29.2499H3.2" stroke="white"/>
<path d="M0.815918 35.4579L3.90392 34.6259" stroke="white"/>
<path d="M3.21582 41.2499L5.98382 39.6499" stroke="white"/>
<path d="M44.7841 41.2499L42.0161 39.6499" stroke="white"/>
<path d="M47.1842 35.4579L44.0962 34.6259" stroke="white"/>
<path d="M47.9998 29.2499H44.7998" stroke="white"/>
<path d="M47.1842 23.0419L44.0962 23.8739" stroke="white"/>
<path d="M44.7841 17.2499L42.0161 18.8499" stroke="white"/>
<path d="M40.9681 12.282L38.7041 14.546" stroke="white"/>
<path d="M35.9999 8.46588L34.3999 11.2339" stroke="white"/>
<path d="M30.208 6.06604L29.376 9.15404" stroke="white"/>
<ellipse cx="24.0002" cy="29.2501" rx="12.8" ry="12.8" fill="#5BC89C"/>
</svg>
