<svg width="48" height="48" viewBox="0 0 48 48" fill="none" xmlns="http://www.w3.org/2000/svg">
<path d="M21.75 42.75C25.9034 42.75 29.9635 41.5184 33.417 39.2109C36.8704 36.9034 39.562 33.6236 41.1515 29.7864C42.7409 25.9491 43.1568 21.7267 42.3465 17.6531C41.5362 13.5795 39.5361 9.83766 36.5992 6.90076C33.6623 3.96385 29.9205 1.9638 25.8469 1.15351C21.7733 0.343219 17.5509 0.759089 13.7136 2.34853C9.8764 3.93797 6.59665 6.62959 4.28914 10.083C1.98163 13.5365 0.749999 17.5966 0.749999 21.75" stroke="white"/>
<path d="M25.5 38.625L21.75 42.75L25.5 46.875" stroke="white"/>
<circle cx="21.75" cy="21.75" r="6" fill="#5BC89C"/>
</svg>
