<svg width="72" height="79" viewBox="0 0 72 79" fill="none" xmlns="http://www.w3.org/2000/svg">
<path d="M36.25 71.25C43.1723 71.25 49.9392 69.1973 55.695 65.3514C61.4507 61.5056 65.9367 56.0393 68.5858 49.6439C71.2348 43.2485 71.928 36.2112 70.5775 29.4218C69.227 22.6325 65.8936 16.3961 60.9987 11.5013C56.1039 6.60642 49.8675 3.273 43.0782 1.92251C36.2888 0.572031 29.2515 1.26515 22.8561 3.91421C16.4607 6.56328 10.9944 11.0493 7.14857 16.805C3.30272 22.5608 1.25001 29.3277 1.25001 36.25" />
<path d="M42.5 64.375L36.25 71.25L42.5 78.125" />
<circle cx="36.25" cy="36.25" r="10" fill="#00CC99" stroke="none" />
</svg>
