<svg width="33" height="42" viewBox="0 0 33 42" fill="none" xmlns="http://www.w3.org/2000/svg">
<path d="M28.6665 14H26.6665V10C26.6665 4.48 22.1865 0 16.6665 0C11.1465 0 6.6665 4.48 6.6665 10H10.6665C10.6665 6.68 13.3465 4 16.6665 4C19.9865 4 22.6665 6.68 22.6665 10V14H4.6665C2.4665 14 0.666504 15.8 0.666504 18V38C0.666504 40.2 2.4665 42 4.6665 42H28.6665C30.8665 42 32.6665 40.2 32.6665 38V18C32.6665 15.8 30.8665 14 28.6665 14ZM28.6665 38H4.6665V18H28.6665V38ZM16.6665 32C18.8665 32 20.6665 30.2 20.6665 28C20.6665 25.8 18.8665 24 16.6665 24C14.4665 24 12.6665 25.8 12.6665 28C12.6665 30.2 14.4665 32 16.6665 32Z" />
</svg>
