<svg width="583" height="1130" viewBox="0 0 583 1130" fill="none" xmlns="http://www.w3.org/2000/svg">
<g opacity="0.1">
<path d="M-0.5 351C16.897 351 31 336.897 31 319.5C31 302.103 16.897 288 -0.5 288C-17.897 288 -32 302.103 -32 319.5C-32 336.897 -17.897 351 -0.5 351Z" fill="#C9C6BD"/>
<path d="M-0.5 805C16.897 805 31 790.897 31 773.5C31 756.103 16.897 742 -0.5 742C-17.897 742 -32 756.103 -32 773.5C-32 790.897 -17.897 805 -0.5 805Z" fill="#C9C6BD"/>
<path d="M113 775C130.121 775 144 760.897 144 743.5C144 726.103 130.121 712 113 712C95.8792 712 82 726.103 82 743.5C82 760.897 95.8792 775 113 775Z" fill="#C9C6BD"/>
<path d="M196.5 691C213.897 691 228 677.121 228 660C228 642.879 213.897 629 196.5 629C179.103 629 165 642.879 165 660C165 677.121 179.103 691 196.5 691Z" fill="#C9C6BD"/>
<path d="M226.5 578C243.897 578 258 563.897 258 546.5C258 529.103 243.897 515 226.5 515C209.103 515 195 529.103 195 546.5C195 563.897 209.103 578 226.5 578Z" fill="#C9C6BD"/>
<path d="M196.5 464C213.897 464 228 449.897 228 432.5C228 415.103 213.897 401 196.5 401C179.103 401 165 415.103 165 432.5C165 449.897 179.103 464 196.5 464Z" fill="#C9C6BD"/>
<path d="M113 381C130.121 381 144 366.897 144 349.5C144 332.103 130.121 318 113 318C95.8792 318 82 332.103 82 349.5C82 366.897 95.8792 381 113 381Z" fill="#C9C6BD"/>
<path d="M-0.5 115C16.897 115 31 101.121 31 84C31 66.8792 16.897 53 -0.5 53C-17.897 53 -32 66.8792 -32 84C-32 101.121 -17.897 115 -0.5 115Z" fill="#02C6EC"/>
<path d="M-0.5 1040C16.897 1040 31 1026.12 31 1009C31 991.879 16.897 978 -0.5 978C-17.897 978 -32 991.879 -32 1009C-32 1026.12 -17.897 1040 -0.5 1040Z" fill="#02C6EC"/>
<path d="M230.5 978C247.897 978 262 964.121 262 947C262 929.879 247.897 916 230.5 916C213.103 916 199 929.879 199 947C199 964.121 213.103 978 230.5 978Z" fill="#02C6EC"/>
<path d="M400 809C417.121 809 431 794.897 431 777.5C431 760.103 417.121 746 400 746C382.879 746 369 760.103 369 777.5C369 794.897 382.879 809 400 809Z" fill="#02C6EC"/>
<path d="M462 578C479.121 578 493 563.897 493 546.5C493 529.103 479.121 515 462 515C444.879 515 431 529.103 431 546.5C431 563.897 444.879 578 462 578Z" fill="#02C6EC"/>
<path d="M400 347C417.121 347 431 332.897 431 315.5C431 298.103 417.121 284 400 284C382.879 284 369 298.103 369 315.5C369 332.897 382.879 347 400 347Z" fill="#02C6EC"/>
<path d="M230.5 177C247.897 177 262 163.121 262 146C262 128.879 247.897 115 230.5 115C213.103 115 199 128.879 199 146C199 163.121 213.103 177 230.5 177Z" fill="#02C6EC"/>
<path d="M415.5 146C424.06 146 431 139.06 431 130.5C431 121.94 424.06 115 415.5 115C406.94 115 400 121.94 400 130.5C400 139.06 406.94 146 415.5 146Z" fill="#1DEABD"/>
<path d="M151.5 1130C160.06 1130 167 1123.06 167 1114.5C167 1105.94 160.06 1099 151.5 1099C142.94 1099 136 1105.94 136 1114.5C136 1123.06 142.94 1130 151.5 1130Z" fill="#1DEABD"/>
<path d="M415.5 978C424.06 978 431 971.06 431 962.5C431 953.94 424.06 947 415.5 947C406.94 947 400 953.94 400 962.5C400 971.06 406.94 978 415.5 978Z" fill="#1DEABD"/>
<path d="M567.5 714C576.06 714 583 707.06 583 698.5C583 689.94 576.06 683 567.5 683C558.94 683 552 689.94 552 698.5C552 707.06 558.94 714 567.5 714Z" fill="#1DEABD"/>
<path d="M567.5 410C576.06 410 583 403.06 583 394.5C583 385.94 576.06 379 567.5 379C558.94 379 552 385.94 552 394.5C552 403.06 558.94 410 567.5 410Z" fill="#1DEABD"/>
<path d="M243 318C251.837 318 259 311.06 259 302.5C259 293.94 251.837 287 243 287C234.163 287 227 293.94 227 302.5C227 311.06 234.163 318 243 318Z" fill="#0079D0"/>
<path d="M88.5 229C97.0604 229 104 222.06 104 213.5C104 204.94 97.0604 198 88.5 198C79.9396 198 73 204.94 73 213.5C73 222.06 79.9396 229 88.5 229Z" fill="#0079D0"/>
<path d="M89 895C97.8366 895 105 888.06 105 879.5C105 870.94 97.8366 864 89 864C80.1634 864 73 870.94 73 879.5C73 888.06 80.1634 895 89 895Z" fill="#0079D0"/>
<path d="M243.5 806C252.06 806 259 798.837 259 790C259 781.163 252.06 774 243.5 774C234.94 774 228 781.163 228 790C228 798.837 234.94 806 243.5 806Z" fill="#0079D0"/>
<path d="M332.5 651C341.06 651 348 644.06 348 635.5C348 626.94 341.06 620 332.5 620C323.94 620 317 626.94 317 635.5C317 644.06 323.94 651 332.5 651Z" fill="#0079D0"/>
<path d="M332.5 473C341.06 473 348 465.837 348 457C348 448.163 341.06 441 332.5 441C323.94 441 317 448.163 317 457C317 465.837 323.94 473 332.5 473Z" fill="#0079D0"/>
<path d="M-0.5 609C34.0178 609 62 581.018 62 546.5C62 511.982 34.0178 484 -0.5 484C-35.0178 484 -63 511.982 -63 546.5C-63 581.018 -35.0178 609 -0.5 609Z" fill="#FC1A52"/>
</g>
</svg>
